<?xml version="1.0" encoding="utf-8"?>
<!-- Generator: Adobe Illustrator 25.0.1, SVG Export Plug-In . SVG Version: 6.00 Build 0)  -->
<svg version="1.0" id="Layer_1" xmlns="http://www.w3.org/2000/svg" xmlns:xlink="http://www.w3.org/1999/xlink" x="0px" y="0px"
	 viewBox="0 0 908.7 532.7" style="enable-background:new 0 0 908.7 532.7;" xml:space="preserve">
<style type="text/css">
	.st0{fill:#EC627A;}
	.st1{fill:#013D4F;}
	.st2{fill:none;}
</style>
<g id="Layer_2">
	<g id="Layer_1-2">
		<polygon class="st0" points="137.6,207.8 88.9,303.3 111.5,303.3 160.2,207.8 		"/>
		<path class="st1" d="M417.5,246l-3.9,7.6h-0.3c-1.6-3-4.1-5.5-7.1-7.1c-3.1-1.4-6.4-2.1-9.8-2c-3.7-0.1-7.3,0.7-10.6,2.3
			c-3,1.5-5.6,3.6-7.7,6.3c-2.1,2.7-3.7,5.8-4.7,9.1c-1.1,3.5-1.6,7.1-1.6,10.7c0,3.7,0.4,7.5,1.3,11.1c0.8,3.3,2.3,6.4,4.4,9.2
			c2,2.6,4.6,4.8,7.6,6.2c3.5,1.6,7.3,2.4,11.1,2.3c3.4,0,6.8-0.7,9.9-2.2c3.1-1.4,5.6-3.7,7.3-6.7h0.2v7.6c0,8.9-4.2,14-12.5,14
			s-12.8-3.6-15.1-6.5l-5.6,11.2c0,0,6.4,5.8,18.6,5.8c20.2,0,29.7-9.8,29.7-25.3V246L417.5,246z M412.8,279.9
			c-0.5,1.8-1.4,3.5-2.5,5c-1.1,1.5-2.6,2.7-4.2,3.6c-1.8,0.9-3.8,1.4-5.9,1.3c-2.1,0.1-4.3-0.5-6.1-1.5c-1.6-1-2.9-2.4-3.9-4
			c-1-1.7-1.7-3.5-2.1-5.5c-0.4-2-0.6-4.1-0.6-6.1c0-2.1,0.2-4.1,0.7-6.1c0.4-1.9,1.2-3.6,2.3-5.2c1-1.5,2.4-2.7,4-3.6
			c1.8-0.9,3.7-1.4,5.7-1.3c2.2-0.1,4.4,0.4,6.4,1.4c1.6,0.9,3,2.2,4.1,3.8c1.1,1.7,1.8,3.6,2.2,5.6c0.4,2.2,0.7,4.4,0.7,6.7
			C413.6,275.9,413.4,277.9,412.8,279.9z"/>
		<path class="st1" d="M207.9,224.2V254h0.3c1.8-3.1,4.4-5.6,7.6-7.2c2.8-1.5,5.9-2.2,9.1-2.3c3.5-0.1,7.1,0.5,10.4,1.8
			c2.5,1,4.7,2.7,6.4,4.8c1.6,2.2,2.7,4.7,3.2,7.4c0.7,3.2,1,6.4,0.9,9.7v35.2h-15.7v-32.4c0.3-3.7-0.5-7.3-2.2-10.6
			c-1.5-2.3-4.1-3.6-7.9-3.6c-4.3,0-7.4,1.3-9.3,3.8s-2.9,6.7-2.9,12.5v30.1h-15.7v-79H207.9z"/>
		<path class="st1" d="M252.5,262.3c1.3-3.6,3.3-6.8,6-9.5c2.6-2.7,5.8-4.7,9.3-6.1c7.9-2.9,16.5-2.9,24.4,0
			c7.2,2.7,12.8,8.4,15.3,15.6c2.8,8.1,2.8,16.9,0,24.9c-1.3,3.5-3.4,6.8-6,9.5c-2.7,2.6-5.9,4.6-9.4,5.9c-7.9,2.8-16.5,2.8-24.4,0
			c-7.1-2.7-12.7-8.4-15.3-15.5C249.6,279,249.6,270.3,252.5,262.3L252.5,262.3z M266.8,281.4c0.4,2.1,1.2,4.1,2.3,5.9
			c1,1.7,2.5,3.1,4.2,4.1c2,1.1,4.3,1.6,6.6,1.6c2.3,0.1,4.6-0.5,6.7-1.6c1.8-1,3.3-2.4,4.3-4.1c1.1-1.8,1.9-3.8,2.3-5.9
			c0.4-2.2,0.7-4.4,0.7-6.7c0-2.3-0.2-4.5-0.7-6.8c-0.4-2.1-1.2-4.1-2.3-5.9c-1.1-1.7-2.6-3.2-4.3-4.2c-2-1.1-4.4-1.7-6.7-1.6
			c-4.4-0.2-8.6,2-10.9,5.7c-1.1,1.8-1.9,3.8-2.3,5.9c-0.5,2.2-0.7,4.5-0.7,6.8C266.1,276.9,266.3,279.2,266.8,281.4L266.8,281.4z"
			/>
		<path class="st1" d="M352.5,303.3v-7.9h-0.3c-1.8,3.1-4.5,5.6-7.8,7.1c-3,1.4-6.4,2.2-9.8,2.2c-3.5,0.1-7-0.5-10.3-1.6
			c-2.5-1-4.7-2.6-6.4-4.8c-1.6-2.2-2.7-4.7-3.3-7.4c-0.7-3.2-1-6.4-1-9.7V246h15.7v32.3c-0.2,3.7,0.5,7.3,2.2,10.6
			c1.5,2.3,4.1,3.5,7.9,3.6c4.3,0,7.4-1.3,9.3-3.8c1.9-2.5,2.9-6.7,2.9-12.5V246h15.7v57.2L352.5,303.3z"/>
		<path class="st1" d="M450.2,224.2V254h0.3c1.8-3.1,4.4-5.6,7.6-7.2c2.8-1.5,5.9-2.2,9.1-2.3c3.5-0.1,7.1,0.5,10.4,1.8
			c2.5,1,4.7,2.6,6.4,4.7c1.6,2.2,2.7,4.7,3.3,7.4c0.6,3.2,1,6.4,0.9,9.7v35.2h-15.7v-32.3c0.2-3.7-0.5-7.3-2.2-10.6
			c-1.5-2.4-4.1-3.6-7.9-3.6c-4.3,0-7.4,1.3-9.3,3.8s-2.9,6.7-2.9,12.5v30.1h-15.7v-79H450.2z"/>
		<path class="st1" d="M608.2,262.3c2.6-7.2,8.2-12.9,15.3-15.6c7.9-2.9,16.5-2.9,24.4,0c7.2,2.7,12.8,8.4,15.3,15.6
			c2.8,8.1,2.8,16.9,0,24.9c-1.3,3.5-3.4,6.8-6,9.5c-2.6,2.6-5.8,4.6-9.3,5.9c-7.9,2.8-16.5,2.8-24.4,0c-3.5-1.3-6.7-3.4-9.3-6
			c-2.6-2.7-4.7-5.9-6-9.5C605.4,279.1,605.4,270.3,608.2,262.3L608.2,262.3z M622.5,281.4c0.4,2.1,1.2,4.1,2.3,5.9
			c1.1,1.7,2.5,3.1,4.3,4.1c2,1.1,4.3,1.6,6.7,1.6c2.3,0.1,4.6-0.5,6.7-1.6c1.8-1,3.3-2.4,4.3-4.1c1.1-1.8,1.9-3.8,2.3-5.9
			c0.4-2.2,0.7-4.4,0.7-6.7c0-2.3-0.2-4.5-0.7-6.8c-0.4-2.1-1.2-4.1-2.3-5.9c-1.1-1.7-2.6-3.2-4.3-4.2c-2-1.1-4.4-1.7-6.7-1.6
			c-2.3-0.1-4.6,0.5-6.7,1.6c-1.7,1-3.2,2.4-4.3,4.1c-1.1,1.8-1.9,3.8-2.3,5.9c-0.4,2.2-0.7,4.5-0.7,6.8
			C621.8,276.9,622,279.2,622.5,281.4L622.5,281.4z"/>
		<path class="st1" d="M730.2,224.2v42.4L750,246h18.6l-21.6,21l24,36.2h-19l-15.7-25.5l-6.1,5.9v19.7h-15.8v-79L730.2,224.2z"/>
		<path class="st1" d="M782.7,289c0.7,1.2,1.6,2.2,2.7,3c1.2,0.8,2.5,1.4,3.8,1.8c1.5,0.4,3,0.6,4.5,0.5c1.2,0,2.3-0.1,3.5-0.4
			c1.2-0.2,2.3-0.6,3.3-1.2c1-0.5,1.8-1.3,2.5-2.2c0.7-1,1.1-2.3,1-3.6c0-2.4-1.6-4.1-4.7-5.4c-4.3-1.5-8.7-2.7-13.1-3.6
			c-2.3-0.5-4.5-1.1-6.7-1.8c-2.1-0.6-4.1-1.5-5.9-2.7c-1.7-1.1-3.1-2.6-4.1-4.3c-1.1-1.9-1.6-4.1-1.5-6.4c-0.1-3.2,0.6-6.3,2.2-9.1
			c1.4-2.3,3.4-4.2,5.7-5.6c2.5-1.4,5.2-2.4,8-2.9c3-0.6,6-0.8,9.1-0.8c3,0,6,0.3,9,0.9c2.8,0.5,5.4,1.5,7.8,3
			c2.3,1.4,4.2,3.3,5.7,5.6c1.6,2.7,2.6,5.7,2.7,8.8h-15c0.1-2.5-1.2-4.9-3.4-6.1c-2.3-1.1-4.8-1.7-7.3-1.6c-1,0-1.9,0.1-2.9,0.2
			c-1,0.1-1.9,0.4-2.8,0.7c-0.8,0.3-1.6,0.9-2.2,1.6c-0.6,0.8-0.9,1.8-0.9,2.8c0,1.3,0.5,2.6,1.5,3.4c1.2,1,2.5,1.7,4,2.2
			c1.9,0.6,3.8,1.1,5.7,1.5c2.1,0.5,4.3,0.9,6.5,1.5c2.3,0.5,4.5,1.1,6.7,1.9c2.1,0.7,4,1.7,5.8,2.9c1.7,1.2,3.1,2.7,4.1,4.5
			c1.1,2.1,1.6,4.4,1.6,6.7c0.3,6.3-2.8,12.3-8.2,15.6c-2.6,1.6-5.4,2.7-8.3,3.3c-3.2,0.6-6.4,0.9-9.6,0.9c-3.3,0-6.5-0.3-9.7-1
			c-3-0.6-5.9-1.7-8.5-3.4c-5.5-3.3-8.8-9.3-8.7-15.7h15C781.5,286.2,781.9,287.7,782.7,289z"/>
		<path class="st1" d="M521.4,291.5c-2.8,0.9-5.8-0.7-6.7-3.5c-0.3-1-0.3-2.1,0-3.2v-28.3h8.8l5.4-10.5h-14.1v-17.2H499V246h-7.9
			l-5.4,10.5H499v33.8c-0.1,2.4,0.4,4.8,1.4,7c0.9,1.7,2.3,3.1,3.9,4.1c1.8,1,3.7,1.6,5.8,1.9c2.3,0.3,4.6,0.5,6.9,0.5
			c1.6,0,3.1,0,4.8-0.1c1.5-0.1,3-0.2,4.4-0.5v-12.2c-0.8,0.2-1.5,0.3-2.3,0.3C523.2,291.5,522.4,291.5,521.4,291.5z"/>
		<path class="st1" d="M182.4,291.5c-1.9,0.2-3.8-0.2-5.4-1.3c-1.1-1.6-1.6-3.5-1.3-5.4v-28.3h8.1l5.4-10.5h-13.4v-17.2H160V246
			h-7.9l-5.4,10.5H160v33.8c-0.1,2.4,0.4,4.8,1.4,7c0.9,1.7,2.3,3.1,3.9,4.1c1.8,1,3.8,1.6,5.8,1.9c2.3,0.3,4.6,0.5,6.9,0.5
			c1.6,0,3.1,0,4.8-0.1c1.5-0.1,3-0.2,4.4-0.5v-12.2c-0.8,0.2-1.5,0.3-2.3,0.3C184.1,291.5,183.2,291.5,182.4,291.5z"/>
		<path class="st1" d="M702.2,244.5c-13.2,0-18.3,12.2-18.3,12.2h-0.2V246h-14.9v57.2h15.7v-23.9l0,0c0-13.9,2.7-20.2,14.6-20.2
			c2.1,0,4.3,0.5,6.2,1.5l6.7-13.3C709.1,245.4,705.7,244.5,702.2,244.5z"/>
		<polygon class="st1" points="592.9,246 582.4,284.8 582.1,284.8 572.4,246 557.1,246 547.6,284.9 547.4,284.9 536.9,246 
			526.6,266.1 538.4,303.3 554.7,303.3 564.4,264.8 564.6,264.8 574.8,303.3 591,303.3 609,246 		"/>
	</g>
</g>
<rect x="68.7" y="188.7" class="st2" width="771.3" height="155.3"/>
</svg>
